<svg xmlns="http://www.w3.org/2000/svg" width="1024" height="1024" viewBox="0 0 1024 1024" version="1.1"><path d="M 515.267 225.558 C 495.091 247.240, 495.091 247.240, 499.795 252.194 C 502.383 254.918, 504.650 257.564, 504.833 258.074 C 505.017 258.583, 505.692 258.960, 506.333 258.911 C 506.975 258.862, 513.575 252.292, 521 244.310 C 534.500 229.799, 534.500 229.799, 548.500 244.430 C 556.200 252.477, 563.008 259.047, 563.629 259.030 C 564.249 259.014, 566.881 256.514, 569.476 253.476 C 572.072 250.438, 573.971 247.400, 573.697 246.726 C 573.422 246.052, 567.416 239.181, 560.349 231.458 C 553.282 223.736, 544.787 214.370, 541.472 210.647 C 535.444 203.877, 535.444 203.877, 515.267 225.558 M 451.628 274.411 C 444.757 280.708, 444.757 280.708, 452.310 296.104 C 456.464 304.572, 462.482 315.565, 465.682 320.533 C 468.882 325.500, 475.094 334.500, 479.487 340.533 C 483.880 346.565, 490.630 355.091, 494.487 359.480 C 498.344 363.869, 506.996 373.094, 513.714 379.980 C 525.929 392.500, 525.929 392.500, 525.964 410.818 C 526 429.136, 526 429.136, 522.750 426.870 C 520.962 425.623, 512.975 418.957, 505 412.055 C 497.025 405.153, 487.850 396.805, 484.612 393.503 C 481.373 390.201, 474.243 382.325, 468.767 376 C 463.291 369.675, 453.941 357.171, 447.991 348.214 C 442.040 339.257, 434.135 325.834, 430.424 318.384 C 423.677 304.840, 423.677 304.840, 416.694 311.824 C 409.710 318.807, 409.710 318.807, 412.855 323.919 C 414.585 326.730, 416 329.234, 416 329.484 C 416 329.734, 418.333 333.890, 421.184 338.719 C 424.035 343.549, 428.605 350.875, 431.341 355 C 434.076 359.125, 438.589 365.650, 441.370 369.500 C 444.150 373.350, 449.127 379.875, 452.429 384 C 455.732 388.125, 461.107 394.313, 464.375 397.750 C 470.317 404, 470.317 404, 441.764 404 C 415.913 404, 412.590 403.808, 406.651 401.974 C 403.043 400.860, 398.652 398.737, 396.894 397.257 C 395.135 395.777, 392.843 392.639, 391.801 390.283 C 390.395 387.104, 389.339 386.001, 387.703 386.006 C 386.491 386.009, 383.813 386.480, 381.750 387.053 C 378 388.094, 378 388.094, 378 396.856 C 378 402.366, 378.464 406.198, 379.250 407.180 C 379.938 408.039, 383.624 410.399, 387.442 412.425 C 391.260 414.451, 397.110 417.087, 400.442 418.284 C 406.218 420.358, 408.393 420.475, 447.203 420.799 C 487.906 421.139, 487.906 421.139, 495.203 427.685 C 499.216 431.285, 504.463 435.641, 506.863 437.365 C 511.225 440.500, 511.225 440.500, 465.363 440.787 C 437.649 440.961, 416.369 440.664, 411.587 440.037 C 406.481 439.367, 402.183 438.125, 399.470 436.535 C 397.158 435.180, 392.973 431.563, 390.170 428.496 C 387.367 425.429, 383.852 422.286, 382.359 421.511 C 380.865 420.736, 379.274 420.331, 378.822 420.610 C 378.370 420.890, 378 426.236, 378 432.491 C 378 443.762, 378.025 443.881, 380.750 445.799 C 382.262 446.864, 386.200 449.114, 389.500 450.800 C 392.800 452.486, 398.166 454.625, 401.425 455.554 C 406.662 457.048, 414.259 457.258, 466.925 457.372 C 526.500 457.500, 526.500 457.500, 526.773 475.750 C 527.045 494, 527.045 494, 535.023 494 C 543 494, 543 494, 543 475.500 C 543 457, 543 457, 603.825 457 C 664.650 457, 664.650 457, 671.594 454.638 C 675.413 453.339, 680.555 451.255, 683.019 450.007 C 685.484 448.760, 688.737 446.867, 690.250 445.801 C 692.980 443.878, 693 443.778, 693 432.307 C 693 420.750, 693 420.750, 690.250 421.316 C 688.661 421.643, 684.333 424.999, 680 429.264 C 674.802 434.380, 670.966 437.228, 667.500 438.543 C 662.861 440.303, 658.741 440.461, 610.500 440.721 C 558.500 441.001, 558.500 441.001, 561.500 438.398 C 563.150 436.967, 565.625 434.872, 567 433.743 C 568.375 432.615, 572.269 429.286, 575.654 426.346 C 581.807 421, 581.807 421, 621.694 421 C 653.750 421, 662.699 420.708, 667.284 419.514 C 670.421 418.697, 676.703 416.173, 681.244 413.904 C 685.785 411.636, 690.288 409.085, 691.250 408.235 C 692.694 406.961, 693 404.966, 693 396.845 C 693 387, 693 387, 687.192 387 C 681.394 387, 681.382 387.006, 679.649 390.935 C 678.694 393.099, 676.364 396.229, 674.471 397.892 C 672.577 399.554, 668.690 401.608, 665.833 402.457 C 661.646 403.700, 654.717 404, 630.166 404 C 599.696 404, 599.696 404, 605.135 398.250 C 608.127 395.087, 614.192 388, 618.613 382.500 C 623.035 377, 628.921 369.350, 631.693 365.500 C 634.466 361.650, 639.646 353.768, 643.205 347.985 C 646.765 342.202, 652.060 333.049, 654.972 327.647 C 660.268 317.824, 660.268 317.824, 653.913 311.412 C 650.417 307.885, 647.242 305, 646.856 305 C 646.470 305, 643.888 309.745, 641.117 315.545 C 638.347 321.344, 632.826 331.357, 628.848 337.795 C 624.870 344.233, 618.458 353.775, 614.599 359 C 610.740 364.225, 604.361 372.325, 600.424 377 C 596.487 381.675, 588.142 390.450, 581.879 396.500 C 575.616 402.550, 564.418 412.635, 556.996 418.910 C 543.500 430.320, 543.500 430.320, 543.229 411.232 C 542.957 392.143, 542.957 392.143, 558.298 376.821 C 566.736 368.395, 577.012 357.450, 581.134 352.500 C 585.256 347.550, 591.824 338.969, 595.731 333.431 C 599.637 327.893, 606.222 317.318, 610.363 309.931 C 614.504 302.544, 619.345 292.767, 621.120 288.205 C 624.348 279.910, 624.348 279.910, 618.455 273.955 C 615.214 270.680, 612.063 268, 611.453 268 C 610.843 268, 608.849 271.938, 607.023 276.750 C 605.196 281.563, 601.675 289.550, 599.197 294.500 C 596.719 299.450, 592.443 307.100, 589.696 311.500 C 586.949 315.900, 581.281 323.988, 577.100 329.472 C 572.920 334.957, 563.553 345.532, 556.285 352.972 C 543.071 366.500, 543.071 366.500, 543.035 344.783 C 543 323.067, 543 323.067, 547.648 317.783 C 550.205 314.878, 555.042 309.555, 558.398 305.955 C 561.754 302.355, 566.413 297.247, 568.750 294.603 C 571.087 291.959, 573 289.292, 573 288.677 C 573 288.061, 570.478 285.009, 567.395 281.894 C 561.791 276.231, 561.791 276.231, 547.612 290.745 C 533.433 305.260, 533.433 305.260, 520.631 290.630 C 513.589 282.583, 507.529 276.026, 507.164 276.057 C 506.799 276.088, 504.363 278.745, 501.750 281.961 C 499.137 285.177, 497.013 288.414, 497.028 289.154 C 497.043 289.894, 503.568 297.918, 511.528 306.985 C 526 323.470, 526 323.470, 526 344.770 C 526 364.931, 525.904 366.019, 524.209 365.112 C 523.224 364.585, 518.363 359.732, 513.406 354.327 C 508.448 348.922, 501.879 341.350, 498.806 337.500 C 495.734 333.650, 489.436 324.857, 484.810 317.960 C 480.185 311.063, 474.131 300.938, 471.357 295.460 C 468.583 289.982, 464.803 281.900, 462.956 277.500 C 461.110 273.100, 459.351 269.188, 459.049 268.807 C 458.747 268.426, 455.408 270.948, 451.628 274.411 M 387.700 461.094 C 385.609 462.197, 383.669 463.700, 383.387 464.433 C 383.106 465.167, 383.807 468.603, 384.945 472.069 C 386.083 475.536, 387.751 479.497, 388.652 480.873 C 389.554 482.249, 391.652 484.519, 393.315 485.919 C 394.979 487.318, 397.501 489.068, 398.920 489.806 C 400.339 490.545, 403.957 491.790, 406.960 492.574 C 411.311 493.710, 421.925 494, 459.210 494 C 506 494, 506 494, 506 486 C 506 478, 506 478, 459.649 478 C 413.298 478, 413.298 478, 408.399 475.416 C 405.705 473.995, 402.204 471.633, 400.620 470.166 C 399.036 468.700, 396.877 465.587, 395.823 463.250 C 394.769 460.913, 393.365 459.020, 392.703 459.044 C 392.041 459.069, 389.790 459.991, 387.700 461.094 M 673.253 464.416 C 672.080 466.831, 669.588 469.975, 667.716 471.403 C 665.844 472.831, 661.654 474.889, 658.406 475.975 C 652.880 477.824, 649.619 477.952, 607.750 477.975 C 563 478, 563 478, 563 486.035 C 563 494.071, 563 494.071, 612.750 493.785 C 662.500 493.500, 662.500 493.500, 668.046 490.899 C 671.096 489.468, 675.249 486.842, 677.275 485.063 C 679.301 483.284, 682.401 478.899, 684.164 475.319 C 686.514 470.544, 687.106 468.391, 686.382 467.244 C 685.840 466.384, 683.144 464.408, 680.391 462.853 C 675.386 460.025, 675.386 460.025, 673.253 464.416 M 261.994 605.886 C 260.615 606.332, 258.140 607.401, 256.494 608.262 C 254.847 609.123, 252.065 611.243, 250.311 612.973 C 248.557 614.703, 246.374 618.369, 245.461 621.119 C 244.371 624.399, 244.035 627.372, 244.483 629.763 C 244.859 631.767, 246.010 635.059, 247.040 637.078 C 248.070 639.097, 250.229 641.856, 251.838 643.210 C 253.447 644.564, 257.179 646.588, 260.132 647.708 C 263.084 648.829, 267.975 650.481, 271 651.380 C 274.025 652.279, 277.465 653.799, 278.644 654.757 C 279.822 655.716, 281.088 657.505, 281.456 658.733 C 281.943 660.361, 281.452 661.638, 279.648 663.443 C 278.286 664.804, 276.003 666.212, 274.573 666.571 C 273.144 666.930, 270.006 666.928, 267.601 666.567 C 265.195 666.207, 260.241 664.111, 256.592 661.910 C 252.943 659.709, 249.523 658.177, 248.992 658.505 C 248.460 658.833, 246.670 661.073, 245.013 663.481 C 243.356 665.890, 242.014 668.454, 242.031 669.180 C 242.048 669.906, 243.960 671.909, 246.281 673.630 C 248.601 675.352, 251.850 677.437, 253.500 678.264 C 255.150 679.090, 259.028 680.327, 262.119 681.013 C 265.209 681.698, 270.384 682.060, 273.619 681.817 C 276.853 681.573, 281.281 680.519, 283.457 679.475 C 285.633 678.430, 289.173 675.763, 291.323 673.548 C 293.473 671.332, 295.630 668.473, 296.116 667.195 C 296.602 665.916, 297 661.854, 297 658.167 C 297 652.656, 296.553 650.807, 294.488 647.767 C 293.106 645.734, 290.068 642.980, 287.738 641.648 C 285.407 640.316, 281.025 638.442, 278 637.485 C 274.975 636.528, 270.475 634.852, 268 633.760 C 265.525 632.669, 262.712 631.082, 261.750 630.233 C 260.788 629.384, 260 627.713, 260 626.519 C 260 625.325, 261.012 623.407, 262.250 622.255 C 263.488 621.104, 266.176 619.853, 268.224 619.475 C 271.232 618.919, 273.251 619.397, 278.724 621.958 C 285.500 625.130, 285.500 625.130, 290.218 619.815 C 292.813 616.892, 294.951 614.187, 294.968 613.805 C 294.986 613.422, 291.536 611.397, 287.302 609.305 C 280.688 606.035, 278.542 605.470, 272.052 605.287 C 267.899 605.170, 263.372 605.439, 261.994 605.886 M 301 612.500 C 301 620, 301 620, 310 620 C 319 620, 319 620, 319 650.500 C 319 681, 319 681, 326.500 681 C 334 681, 334 681, 334 650.500 C 334 620, 334 620, 344 620 C 354 620, 354 620, 354 612.500 C 354 605, 354 605, 327.500 605 C 301 605, 301 605, 301 612.500 M 378.500 605.872 C 376.850 606.303, 373.814 607.459, 371.754 608.440 C 369.694 609.421, 365.607 612.817, 362.673 615.987 C 359.071 619.877, 356.574 623.791, 354.988 628.033 C 353.169 632.895, 352.630 636.373, 352.605 643.408 C 352.584 649.267, 353.191 654.543, 354.313 658.245 C 355.355 661.685, 357.768 666.094, 360.328 669.234 C 362.679 672.118, 366.792 675.833, 369.468 677.489 C 373.958 680.268, 375.167 680.526, 385.135 680.838 C 395.015 681.146, 396.388 680.959, 401.219 678.647 C 404.123 677.257, 407.210 675.530, 408.078 674.809 C 408.945 674.089, 411.245 671.411, 413.188 668.857 C 415.282 666.104, 417.437 661.565, 418.481 657.710 C 419.786 652.887, 420.137 648.661, 419.839 641.353 C 419.495 632.911, 418.996 630.569, 416.356 625 C 414.661 621.425, 411.525 616.768, 409.387 614.650 C 407.249 612.533, 403.250 609.650, 400.500 608.244 C 396.854 606.380, 393.605 605.606, 388.500 605.388 C 384.650 605.223, 380.150 605.440, 378.500 605.872 M 653.357 607.082 C 650.528 608.170, 646.148 610.878, 643.625 613.099 C 640.807 615.579, 637.899 619.524, 636.089 623.319 C 634.468 626.719, 632.603 632.595, 631.946 636.378 C 631.242 640.424, 631.027 645.983, 631.423 649.878 C 631.793 653.520, 633.159 658.829, 634.458 661.675 C 635.758 664.521, 638.641 668.825, 640.867 671.239 C 643.092 673.654, 647.505 676.941, 650.674 678.544 C 654.858 680.661, 658.262 681.562, 663.098 681.836 C 667.286 682.072, 671.781 681.624, 675.206 680.628 C 678.202 679.757, 682.708 677.476, 685.218 675.560 C 687.729 673.643, 691.195 669.780, 692.920 666.975 C 694.646 664.171, 696.766 658.867, 697.632 655.188 C 698.677 650.749, 699.024 646.147, 698.663 641.500 C 698.364 637.650, 697.411 632.173, 696.544 629.329 C 695.678 626.484, 692.978 621.534, 690.544 618.329 C 688.110 615.123, 684.532 611.439, 682.592 610.143 C 680.652 608.847, 677.363 607.179, 675.282 606.437 C 673.202 605.695, 668.575 605.091, 665 605.096 C 660.942 605.101, 656.568 605.847, 653.357 607.082 M 732 605.876 C 730.625 606.328, 727.636 607.651, 725.357 608.815 C 723.079 609.979, 719.552 612.859, 717.519 615.216 C 715.486 617.572, 712.779 621.540, 711.504 624.033 C 710.229 626.527, 708.631 631.388, 707.952 634.837 C 707.260 638.358, 706.965 644.043, 707.280 647.804 C 707.589 651.488, 708.802 657.068, 709.975 660.203 C 711.148 663.338, 714.064 668.079, 716.455 670.739 C 718.847 673.399, 723.210 676.908, 726.152 678.538 C 730.977 681.210, 732.380 681.498, 740.500 681.485 C 747.771 681.472, 750.504 681.018, 754.727 679.121 C 757.602 677.830, 761.805 674.766, 764.067 672.312 C 766.329 669.858, 769.376 665.296, 770.840 662.175 C 773.293 656.942, 773.500 655.487, 773.500 643.500 C 773.500 631.578, 773.284 630.044, 770.900 625 C 769.471 621.975, 766.171 617.385, 763.568 614.799 C 760.965 612.214, 756.767 609.098, 754.239 607.874 C 751.018 606.314, 747.377 605.560, 742.071 605.352 C 737.907 605.188, 733.375 605.424, 732 605.876 M 429 643.500 C 429 681, 429 681, 436.500 681 C 444 681, 444 681, 444.052 659.750 C 444.101 640.014, 444.218 638.663, 445.697 640.785 C 446.573 642.041, 451.612 648.628, 456.895 655.422 C 462.178 662.215, 468.665 670.750, 471.311 674.387 C 476.122 681, 476.122 681, 482.061 681 C 488 681, 488 681, 488 643.500 C 488 606, 488 606, 480.500 606 C 473 606, 473 606, 472.971 628.250 C 472.941 650.500, 472.941 650.500, 470.221 647.401 C 468.724 645.697, 461.437 635.684, 454.027 625.151 C 440.555 606, 440.555 606, 434.777 606 C 429 606, 429 606, 429 643.500 M 500 643.500 C 500 681, 500 681, 524 681 C 548 681, 548 681, 548 674 C 548 667, 548 667, 531.500 667 C 515 667, 515 667, 515 659 C 515 651, 515 651, 527.500 651 C 540 651, 540 651, 540 644 C 540 637, 540 637, 527.500 637 C 515 637, 515 637, 515 628.500 C 515 620, 515 620, 531 620 C 547 620, 547 620, 547 613 C 547 606, 547 606, 523.500 606 C 500 606, 500 606, 500 643.500 M 570 643.544 C 570 681.088, 570 681.088, 577.250 680.794 C 584.500 680.500, 584.500 680.500, 584.781 668.250 C 585.062 656, 585.062 656, 590.963 656 C 596.030 656, 596.957 656.289, 597.514 658.044 C 597.871 659.169, 600.443 664.006, 603.230 668.794 C 606.017 673.583, 608.975 678.288, 609.803 679.250 C 611.014 680.656, 612.948 681, 619.655 681 C 624.245 681, 628 680.618, 628 680.150 C 628 679.683, 626.736 677.545, 625.190 675.400 C 623.645 673.255, 619.840 667.251, 616.734 662.057 C 611.087 652.614, 611.087 652.614, 614.144 651.133 C 615.826 650.319, 618.234 648.043, 619.496 646.076 C 620.758 644.109, 622.343 640.752, 623.017 638.616 C 623.767 636.240, 623.995 632.618, 623.604 629.292 C 623.253 626.300, 622.118 622.192, 621.083 620.163 C 620.048 618.134, 617.918 615.178, 616.351 613.593 C 614.783 612.009, 611.250 609.657, 608.500 608.366 C 603.880 606.198, 602.226 606.019, 586.750 606.010 C 570 606, 570 606, 570 643.544 M 780 612.962 C 780 619.925, 780 619.925, 789.250 620.212 C 798.500 620.500, 798.500 620.500, 798.765 650.750 C 799.029 681, 799.029 681, 806 681 C 812.971 681, 812.971 681, 813.235 650.750 C 813.500 620.500, 813.500 620.500, 823.750 620.215 C 834 619.930, 834 619.930, 834 612.965 C 834 606, 834 606, 807 606 C 780 606, 780 606, 780 612.962 M 378.969 622.250 C 376.224 623.636, 373.388 626.194, 371.582 628.912 C 369.141 632.585, 368.576 634.614, 368.204 641.038 C 367.883 646.577, 368.224 650.128, 369.413 653.627 C 370.323 656.307, 371.917 659.519, 372.955 660.764 C 373.993 662.009, 376.791 663.911, 379.171 664.992 C 381.552 666.072, 384.867 666.966, 386.538 666.978 C 388.209 666.990, 391.580 665.987, 394.030 664.750 C 396.480 663.513, 399.495 660.978, 400.731 659.118 C 401.968 657.257, 403.431 654.107, 403.984 652.118 C 404.537 650.128, 404.987 646.025, 404.985 643 C 404.982 639.302, 404.206 635.862, 402.617 632.500 C 401.317 629.750, 398.925 626.254, 397.301 624.730 C 395.678 623.207, 392.811 621.519, 390.931 620.980 C 389.051 620.441, 386.593 620, 385.468 620 C 384.344 620, 381.419 621.013, 378.969 622.250 M 659.500 621.154 C 657.850 621.759, 655.490 623.174, 654.255 624.297 C 653.020 625.420, 650.883 628.601, 649.505 631.366 C 647.584 635.222, 647 637.949, 647 643.071 C 647 646.743, 647.692 651.711, 648.539 654.110 C 649.385 656.509, 651.298 659.752, 652.789 661.318 C 654.280 662.883, 657.017 664.802, 658.872 665.582 C 660.727 666.362, 663.652 666.990, 665.372 666.978 C 667.092 666.966, 670.335 666.122, 672.579 665.104 C 674.822 664.085, 677.607 662.044, 678.767 660.569 C 679.927 659.094, 681.636 655.601, 682.564 652.806 C 683.742 649.262, 684.099 645.828, 683.748 641.448 C 683.429 637.476, 682.373 633.611, 680.872 630.925 C 679.567 628.589, 676.917 625.407, 674.982 623.852 C 672.712 622.028, 669.873 620.853, 666.982 620.539 C 664.517 620.272, 661.150 620.549, 659.500 621.154 M 735.500 620.681 C 734.400 620.968, 732.084 622.271, 730.352 623.575 C 728.621 624.879, 726.196 628.030, 724.962 630.578 C 723.238 634.140, 722.698 637.094, 722.629 643.356 C 722.549 650.466, 722.888 652.135, 725.293 656.500 C 726.809 659.250, 729.642 662.590, 731.589 663.923 C 733.895 665.501, 736.937 666.475, 740.314 666.715 C 744.374 667.004, 746.363 666.582, 749.477 664.773 C 752.323 663.119, 754.303 660.804, 756.433 656.638 C 758.861 651.891, 759.410 649.583, 759.404 644.157 C 759.397 639.112, 758.764 636.126, 756.786 631.823 C 754.974 627.880, 753.005 625.382, 750.339 623.644 C 748.227 622.268, 744.475 620.921, 742 620.650 C 739.525 620.380, 736.600 620.393, 735.500 620.681 M 585 631.500 C 585 642, 585 642, 593.864 642 C 602.107 642, 602.912 641.816, 605.364 639.364 C 607.419 637.309, 608 635.750, 608 632.298 C 608 629.862, 607.537 627.003, 606.970 625.945 C 606.404 624.886, 604.626 623.341, 603.020 622.510 C 601.172 621.554, 597.328 621, 592.550 621 C 585 621, 585 621, 585 631.500 M 374.500 714.662 C 372.300 715.585, 368.633 717.604, 366.351 719.149 C 364.069 720.693, 360.866 723.654, 359.234 725.729 C 357.602 727.803, 355.362 731.300, 354.256 733.500 C 353.151 735.700, 351.741 739.885, 351.123 742.799 C 350.505 745.714, 350 749.796, 350 751.871 C 350 753.946, 350.749 757.861, 351.664 760.572 C 352.579 763.282, 354.332 767.103, 355.558 769.062 C 356.784 771.021, 360.129 774.729, 362.990 777.301 C 366.735 780.668, 370.018 782.543, 374.702 783.990 C 378.282 785.095, 383.094 786, 385.395 786 C 387.697 786, 392.227 785.311, 395.462 784.468 C 398.697 783.625, 403.967 781.343, 407.172 779.395 C 413 775.855, 413 775.855, 413 761.900 C 413 747.945, 413 747.945, 398.750 748.223 C 384.500 748.500, 384.500 748.500, 384.807 755 C 384.976 758.575, 385.426 761.812, 385.807 762.193 C 386.188 762.574, 389.557 762.983, 393.293 763.102 C 398.793 763.277, 400.029 763.610, 399.789 764.855 C 399.627 765.700, 398.030 767.246, 396.241 768.291 C 394.452 769.336, 390.404 770.389, 387.244 770.631 C 382.580 770.989, 380.654 770.628, 377 768.710 C 374.050 767.161, 371.503 764.737, 369.606 761.673 C 367.177 757.751, 366.706 755.914, 366.676 750.250 C 366.649 745.304, 367.196 742.431, 368.722 739.500 C 369.868 737.300, 371.868 734.509, 373.166 733.298 C 374.465 732.086, 377.194 730.399, 379.232 729.548 C 381.269 728.696, 384.496 728, 386.403 728 C 388.310 728, 391.089 728.463, 392.579 729.030 C 394.069 729.596, 397.056 731.460, 399.216 733.171 C 403.144 736.282, 403.144 736.282, 408.070 731.431 C 412.995 726.580, 412.995 726.580, 409.248 722.741 C 407.186 720.630, 403.074 717.716, 400.108 716.265 C 395.929 714.220, 392.892 713.554, 386.608 713.305 C 380.682 713.069, 377.423 713.435, 374.500 714.662 M 522.305 715.438 C 519.448 716.768, 515.081 719.728, 512.600 722.015 C 510.119 724.302, 507.005 728.047, 505.680 730.336 C 504.355 732.626, 502.700 736.925, 502.002 739.890 C 501.233 743.159, 500.944 748.346, 501.268 753.072 C 501.677 759.040, 502.469 762.108, 504.651 766.175 C 506.218 769.095, 509.437 773.436, 511.804 775.822 C 514.170 778.208, 518.449 781.232, 521.312 782.543 C 524.175 783.853, 529.058 785.224, 532.163 785.589 C 536.505 786.100, 539.431 785.760, 544.831 784.120 C 550.300 782.459, 553.080 780.866, 557.402 776.915 C 561.057 773.575, 564.069 769.573, 566.226 765.193 C 569.233 759.083, 569.499 757.767, 569.490 749.021 C 569.481 740.791, 569.114 738.718, 566.787 733.732 C 565.291 730.527, 561.726 725.596, 558.766 722.636 C 555.098 718.967, 551.645 716.637, 547.681 715.154 C 543.726 713.674, 539.668 713.003, 534.712 713.010 C 529.197 713.017, 526.278 713.589, 522.305 715.438 M 434 749.439 C 434 785, 434 785, 441.500 785 C 449 785, 449 785, 449 774 C 449 763, 449 763, 454.816 763 C 460.631 763, 460.631 763, 467.066 773.750 C 473.500 784.500, 473.500 784.500, 481.750 784.790 C 488.757 785.037, 490 784.841, 490 783.486 C 490 782.608, 488.137 779.148, 485.861 775.795 C 483.585 772.443, 480.283 767.154, 478.523 764.041 C 475.324 758.381, 475.324 758.381, 479.575 754.441 C 482.803 751.448, 484.233 749.085, 485.523 744.614 C 486.939 739.706, 487.035 737.799, 486.101 733.148 C 485.485 730.079, 483.856 725.870, 482.482 723.793 C 481.107 721.716, 478.109 718.776, 475.818 717.259 C 471.695 714.527, 471.471 714.497, 452.827 714.189 C 434 713.879, 434 713.879, 434 749.439 M 587 739.511 C 587 763.357, 587.137 765.314, 589.104 769.498 C 590.261 771.960, 592.830 775.549, 594.812 777.475 C 596.795 779.400, 600.460 781.971, 602.958 783.187 C 606.518 784.920, 609.338 785.409, 616 785.449 C 623.368 785.493, 625.268 785.123, 630.267 782.668 C 634.068 780.802, 637.222 778.279, 639.523 775.266 C 641.442 772.752, 643.685 768.432, 644.506 765.666 C 645.645 761.833, 646 755.089, 646 737.318 C 646 714, 646 714, 638.500 714 C 631 714, 631 714, 630.998 736.750 C 630.997 756.406, 630.759 759.976, 629.248 763 C 628.248 765.002, 626.002 767.248, 624 768.248 C 622.075 769.210, 618.700 769.997, 616.500 769.997 C 614.300 769.997, 610.925 769.210, 609 768.248 C 606.998 767.248, 604.752 765.002, 603.752 763 C 602.241 759.976, 602.003 756.406, 602.002 736.750 C 602 714, 602 714, 594.500 714 C 587 714, 587 714, 587 739.511 M 667 749.438 C 667 785, 667 785, 674.500 785 C 682 785, 682 785, 682 774.139 C 682 763.277, 682 763.277, 690.758 762.778 C 697.502 762.394, 700.686 761.686, 704.598 759.704 C 707.393 758.287, 711.054 755.563, 712.734 753.650 C 714.414 751.737, 716.333 748.520, 716.999 746.502 C 717.684 744.428, 718.040 739.719, 717.818 735.667 C 717.508 730.003, 716.855 727.611, 714.707 724.260 C 713.211 721.928, 710.113 718.778, 707.821 717.260 C 703.706 714.534, 703.425 714.496, 685.327 714.188 C 667 713.876, 667 713.876, 667 749.438 M 449 738.103 C 449 748.205, 449 748.205, 457.587 747.853 C 465.548 747.526, 466.349 747.296, 468.587 744.694 C 470.147 742.881, 471 740.647, 471 738.378 C 471 736.448, 470.537 734.003, 469.970 732.945 C 469.404 731.886, 467.626 730.341, 466.020 729.510 C 464.225 728.582, 460.382 728, 456.050 728 C 449 728, 449 728, 449 738.103 M 529 729.118 C 527.625 729.664, 524.999 731.548, 523.165 733.305 C 521.330 735.062, 519.251 737.625, 518.545 739 C 517.838 740.375, 516.965 743.529, 516.605 746.008 C 516.193 748.842, 516.472 752.250, 517.355 755.186 C 518.128 757.754, 519.752 761.248, 520.965 762.950 C 522.177 764.653, 524.913 766.935, 527.044 768.023 C 529.176 769.110, 532.753 770, 534.992 770 C 537.232 770, 540.658 769.334, 542.605 768.520 C 544.553 767.707, 547.024 766.019, 548.096 764.770 C 549.168 763.522, 551.024 760.700, 552.220 758.500 C 553.727 755.728, 554.383 752.812, 554.357 749 C 554.334 745.789, 553.580 742.044, 552.545 740 C 551.570 738.075, 549.586 735.226, 548.136 733.668 C 546.686 732.111, 543.983 730.198, 542.128 729.418 C 540.273 728.638, 537.123 728.029, 535.128 728.063 C 533.133 728.098, 530.375 728.573, 529 729.118 M 682 737.868 C 682 748, 682 748, 687.851 748 C 691.069 748, 695.132 747.501, 696.881 746.892 C 698.729 746.247, 700.713 744.522, 701.619 742.770 C 702.604 740.865, 702.955 738.574, 702.573 736.538 C 702.241 734.768, 700.864 732.281, 699.512 731.012 C 697.529 729.148, 695.604 728.610, 689.528 728.220 C 682 727.737, 682 727.737, 682 737.868" stroke="none" fill="#142c34" fill-rule="evenodd"/><path d="M 406.597 511 C 409.318 516, 409.318 516, 535.073 516 C 660.828 516, 660.828 516, 663.905 511 C 666.982 506, 666.982 506, 535.428 506 C 403.875 506, 403.875 506, 406.597 511 M 419 526.559 C 419 526.866, 420.425 528.891, 422.167 531.059 C 425.335 535, 425.335 535, 534.531 535 C 643.728 535, 643.728 535, 646.364 531.196 C 647.814 529.104, 649 527.079, 649 526.696 C 649 526.313, 597.250 526, 534 526 C 470.750 526, 419 526.251, 419 526.559 M 439.700 546.384 C 440.140 547.146, 442.641 549.396, 445.259 551.384 C 450.017 555, 450.017 555, 534.313 555 C 618.608 555, 618.608 555, 623.054 552.151 C 625.499 550.585, 628.357 548.335, 629.405 547.151 C 631.310 545, 631.310 545, 535.105 545 C 453.441 545, 439.021 545.209, 439.700 546.384 M 476 567.524 C 477.375 568.324, 482.817 570.346, 488.093 572.018 C 493.370 573.690, 502.595 575.711, 508.593 576.510 C 514.592 577.308, 526.044 577.970, 534.042 577.980 C 542.039 577.991, 553.750 577.322, 560.065 576.494 C 566.380 575.666, 574.562 574.126, 578.247 573.072 C 581.932 572.019, 587.321 570.034, 590.224 568.662 C 595.500 566.167, 595.500 566.167, 534.500 566.119 C 480.680 566.077, 473.794 566.242, 476 567.524 M 261.964 747.067 C 261.104 748.675, 261.212 749.675, 262.452 751.567 C 264.046 754, 264.046 754, 294.500 754 C 324.954 754, 324.954 754, 326.548 751.567 C 327.788 749.675, 327.896 748.675, 327.036 747.067 C 325.954 745.045, 325.246 745, 294.500 745 C 263.754 745, 263.046 745.045, 261.964 747.067 M 743.200 746.200 C 742.540 746.860, 742 748.345, 742 749.500 C 742 750.655, 742.540 752.140, 743.200 752.800 C 744.083 753.683, 752.751 754, 775.977 754 C 802.939 754, 807.880 753.772, 809.777 752.443 C 811 751.587, 812 750.102, 812 749.143 C 812 748.184, 811.460 746.860, 810.800 746.200 C 809.916 745.316, 801.022 745, 777 745 C 752.978 745, 744.084 745.316, 743.200 746.200" stroke="none" fill="#cc6c14" fill-rule="evenodd"/></svg>